<svg width="504" height="56" viewBox="0 0 504 56" fill="none" xmlns="http://www.w3.org/2000/svg">
<path d="M0 56V0H40V8H48V16H56V40H48V48H40V56H0ZM16 48H32V40H40V16H32V8H16V48Z" fill="#5FFFD7" fill-opacity="0.72"/>
<path d="M88 8V0H104V8H88ZM72 56V48H88V24H80V16H104V48H120V56H72Z" fill="#5FFFD7" fill-opacity="0.72"/>
<path d="M152 56V24H136V16H152V8H160V0H184V8H168V16H184V24H168V56H152Z" fill="#5FFFD7" fill-opacity="0.72"/>
<path d="M216 56V24H200V16H216V8H224V0H248V8H232V16H248V24H232V56H216Z" fill="#5FFFD7" fill-opacity="0.72"/>
<path d="M256 56V16H304V24H312V56H296V24H288V56H272V24H264V56H256Z" fill="white"/>
<path d="M328 56V48H320V40H328V32H360V24H328V16H368V24H376V56H328ZM336 48H360V40H336V48Z" fill="white"/>
<path d="M408 56V24H392V16H408V0H424V16H440V24H424V56H408Z" fill="white"/>
<path d="M456 56V48H448V24H456V16H496V24H504V40H464V48H496V56H456ZM464 32H488V24H464V32Z" fill="white"/>
</svg>
